<svg width="217" height="182" viewBox="0 0 217 182" fill="none" xmlns="http://www.w3.org/2000/svg">
<path d="M178.276 87.9185C178.148 87.1002 177.381 86.5399 176.56 86.6677C175.742 86.7955 175.182 87.5646 175.31 88.3829C175.526 89.7812 175.799 94.1601 174.287 95.922C173.961 96.3029 173.565 96.5315 173.069 96.6224L173.206 88.2822C173.226 87.0707 172.25 86.0779 171.036 86.0779C169.818 86.0779 168.837 87.083 168.867 88.3018L169.26 104.13C168.739 104.046 168.328 103.817 167.989 103.422C166.478 101.66 166.753 97.281 166.967 95.8827C167.095 95.0644 166.535 94.2953 165.716 94.1675C164.896 94.0397 164.129 94.6 164.001 95.4183C163.893 96.1063 163.025 102.24 165.706 105.371C166.628 106.447 167.876 107.059 169.333 107.152L169.503 114.042H172.779L173.017 99.6474C174.442 99.5368 175.661 98.9298 176.568 97.8707C179.251 94.7401 178.384 88.609 178.276 87.9185Z" fill="#BDBDBD"/>
<path d="M38.4403 101.337C38.3592 100.816 37.8702 100.458 37.3468 100.541C36.8259 100.622 36.4671 101.111 36.5506 101.635C36.6882 102.527 36.8627 105.318 35.8994 106.441C35.6906 106.684 35.4399 106.829 35.1229 106.888L35.2114 101.571C35.2237 100.799 34.602 100.165 33.8279 100.165C33.0514 100.165 32.4272 100.806 32.4444 101.583L32.6951 111.673C32.3633 111.619 32.1004 111.474 31.8866 111.223C30.9233 110.1 31.0978 107.309 31.2354 106.417C31.3165 105.896 30.9602 105.404 30.4392 105.323C29.9158 105.242 29.4268 105.598 29.3457 106.119C29.2769 106.559 28.724 110.466 30.4319 112.464C31.0192 113.15 31.8153 113.54 32.7442 113.599L32.8523 117.991H34.9411L35.0934 108.815C36.0002 108.744 36.7792 108.358 37.3566 107.682C39.062 105.684 38.5091 101.775 38.4403 101.337Z" fill="#BDBDBD"/>
<path d="M108.497 181.523C168.144 181.523 216.497 164.405 216.497 143.289C216.497 122.173 168.144 105.055 108.497 105.055C48.8503 105.055 0.49707 122.173 0.49707 143.289C0.49707 164.405 48.8503 181.523 108.497 181.523Z" fill="url(#paint0_linear_2_670)"/>
<path d="M125.738 96.9427C125.738 96.9427 125.674 100.621 125.736 100.99C125.797 101.359 124.296 103.516 123.681 103.42C123.067 103.324 121.838 103.12 121.661 102.916C121.484 102.713 121.563 102.228 121.624 101.789C121.688 101.346 122.148 97.3408 122.148 97.1368C122.148 96.9329 125.055 96.3824 125.738 96.9427Z" fill="#FFD3BC"/>
<path d="M123.356 100.781C122.587 101.196 122.157 102.459 122.047 102.474C121.939 102.488 121.735 102.459 121.735 102.334C121.735 102.208 121.767 101.788 121.626 101.788C121.486 101.788 121.329 102.474 121.3 103.474C121.268 104.474 120.914 106.855 121.3 107.157C121.543 107.347 123.767 108.516 123.828 108.671C123.89 108.828 123.782 109.919 123.968 110.091C124.155 110.264 124.592 110.684 124.936 110.701C125.281 110.716 127.261 110.92 128.2 110.701C129.136 110.482 130.323 110.03 130.355 109.905C130.387 109.779 130.121 107.125 129.824 106.799C129.527 106.472 127.389 103.535 127.217 103.27C127.045 103.005 126.92 102.366 126.92 101.99C126.92 101.616 126.58 100.798 125.949 100.601C125.29 100.397 123.934 100.469 123.356 100.781Z" fill="url(#paint1_linear_2_670)"/>
<path d="M103.312 99.0724C103.312 99.0724 103.312 101.215 103.251 101.584C103.189 101.952 104.691 104.11 105.305 104.014C105.919 103.918 107.148 103.714 107.325 103.51C107.502 103.306 107.423 102.822 107.362 102.382C107.298 101.94 106.902 99.4705 106.902 99.2665C106.902 99.0576 103.995 98.5121 103.312 99.0724Z" fill="#FFD3BC"/>
<path d="M105.29 51.7901C104.42 54.9502 102.776 65.7797 102.776 71.0433C102.776 76.3069 102.25 89.7265 102.25 91.7636C102.25 93.8032 102.031 98.8629 102.557 99.1258C103.083 99.3887 104.314 100.18 105.983 99.9171C107.651 99.6541 108.091 98.5999 108.135 97.6342C108.179 96.6684 108.575 89.7289 108.971 87.0504C109.366 84.3719 110.772 79.2041 111.693 75.8818C112.615 72.557 114.767 65.8755 115.338 65.9001C115.908 65.9247 119.466 80.5655 119.761 81.3961C120.058 82.2267 120.621 94.0145 120.658 95.0048C120.695 95.9951 120.658 96.9461 121.279 97.3491C121.901 97.7521 123.808 98.7424 124.796 98.8137C125.786 98.8874 126.445 97.3123 126.627 96.8355C126.811 96.3588 127.135 80.5901 127.017 76.2652C126.899 71.9403 127.243 63.8728 127.042 61.2435C126.843 58.6141 126.199 52.977 125.789 51.7901C125.383 50.6032 105.29 51.7901 105.29 51.7901Z" fill="#5A3D44"/>
<path d="M99.1489 15.0475C99.9795 14.126 103.85 9.76176 104.619 9.60695C105.388 9.45213 107.258 9.11548 107.673 8.68544C108.091 8.25541 109.853 2.71903 109.155 1.71152C108.457 0.704011 105.762 0.989062 104.946 2.70428C104.13 4.41951 104.169 5.31643 102.823 6.50087C101.476 7.68531 95.6054 12.4845 95.0599 12.9686C94.5144 13.4527 95.5981 15.8093 96.4557 16.2172C97.3158 16.6251 99.1489 15.0475 99.1489 15.0475Z" fill="url(#paint2_linear_2_670)"/>
<path d="M109.851 16.375C107.873 16.7903 104.585 17.1417 103.501 17.4931C102.415 17.8445 98.1392 19.3435 98.1711 18.7046C98.2031 18.0657 100.149 15.2594 99.7979 14.9719C99.4465 14.6844 97.3405 14.333 96.9891 13.8857C96.6377 13.4385 96.1586 12.3867 95.6818 12.5145C95.2027 12.6423 89.654 17.8101 90.0324 19.7907C90.9269 24.4572 104.044 27.8557 104.344 29.8904C104.644 31.925 103.327 51.4363 104.044 52.1538C104.762 52.8714 112.362 55.6261 116.193 55.8644C120.024 56.1028 126.743 54.7685 127.109 53.7609C127.475 52.7534 125.239 33.3675 125.499 33.3675C125.76 33.3675 125.831 39.4691 128.75 41.0467C130.677 42.0886 133.326 41.0147 133.832 40.4397C134.338 39.8647 132.021 31.753 130.974 29.0156C129.925 26.2805 128.922 20.6262 126.551 18.621C124.18 16.6158 120.833 16.9549 119.68 16.4856C118.528 16.0138 114.662 16.3529 113.687 16.2497C112.714 16.1465 109.851 16.375 109.851 16.375Z" fill="url(#paint3_linear_2_670)"/>
<path d="M134.561 36.7729C134.561 36.7729 131.151 37.805 130.885 38.1589C130.62 38.5127 130.146 39.9331 130.885 40.5253C131.625 41.1175 132.436 41.5598 133.313 40.8767C134.19 40.1936 134.989 39.277 135.495 39.159C136.001 39.0435 137.518 39.2598 138.154 39.0116C138.791 38.7609 139.997 33.9372 139.511 33.6447C139.022 33.3523 134.561 36.7729 134.561 36.7729Z" fill="url(#paint4_linear_2_670)"/>
<path d="M109.865 15.7241C108.764 15.4956 106.639 13.4166 106.445 11.3058C106.256 9.249 104.742 3.46689 110.008 1.29706C114.95 -0.737619 120.034 1.35603 120.766 3.86497C121.449 6.20927 115.647 6.31494 113.522 7.84095C111.396 9.36695 111.251 10.3794 110.72 10.1386C110.187 9.89774 109.865 15.7241 109.865 15.7241Z" fill="#3C414B"/>
<path d="M109.777 11.6017C109.709 12.5429 109.47 17.1013 109.866 17.7746C110.23 18.3914 110.873 20.1828 113.397 20.1041C115.923 20.0255 117.56 17.4993 117.7 17.2045C117.837 16.9096 117.543 13.258 117.543 12.6461C117.543 12.0342 114.149 10.5942 112.788 10.6335C111.424 10.6704 109.844 10.7171 109.777 11.6017Z" fill="url(#paint5_linear_2_670)"/>
<path d="M110.008 11.6203C110.293 11.613 109.956 13.3503 110.472 13.9179C110.989 14.4856 113.235 17.4467 115.611 17.1567C117.665 16.9061 117.37 15.1368 117.668 13.6771C117.935 12.3526 118.791 12.2396 119.09 8.7821C119.206 7.44531 119.84 5.3492 118.678 4.9634C117.515 4.57514 113.156 3.54306 112.072 4.9634C110.988 6.38374 110.885 9.78961 110.318 9.34975C109.75 8.90988 108.563 6.76954 107.865 7.92941C107.17 9.09173 108.487 11.6646 110.008 11.6203Z" fill="#F2DAD4"/>
<path d="M128.357 29.2949L121.44 38.0406C121.081 38.4952 121.41 39.1636 121.99 39.1538L134.776 38.9375C134.987 38.9351 135.186 38.8318 135.314 38.6623L141.848 29.9314C142.158 29.5185 141.86 28.9288 141.344 28.9337L128.891 29.0369C128.682 29.0344 128.485 29.1303 128.357 29.2949Z" fill="url(#paint6_linear_2_670)"/>
<path d="M139.292 32.8163C138.619 32.8851 137.641 33.2635 137.641 33.6149C137.641 33.9663 138.425 34.0621 138.641 34.0965C138.858 34.1285 139.143 34.1973 139.062 34.3054C138.98 34.4135 138.818 34.9541 138.386 34.8608C137.953 34.7649 136.059 34.7379 135.692 34.7379C135.326 34.7379 134.894 34.9959 134.867 35.2662C134.84 35.5365 134.759 35.5906 134.542 35.6053C134.326 35.6201 133.933 35.8216 133.933 36.173C133.933 36.5244 134.803 36.8414 134.803 36.9667C134.803 37.092 136.508 38.1315 136.843 38.3256C137.177 38.5197 137.801 39.0112 138.152 39.0112C138.504 39.0112 139.093 38.677 139.138 38.1929C139.182 37.7088 139.877 37.3574 139.885 37.1191C139.895 36.8807 139.666 36.7062 139.691 36.5563C139.718 36.4064 140.325 36.1951 140.325 35.8167C140.325 35.4382 140.086 34.9296 140.052 34.7698C140.017 34.6126 139.875 34.2685 140.017 34.2243C140.157 34.1801 140.651 33.723 140.563 33.3004C140.474 32.8802 139.605 32.7843 139.292 32.8163Z" fill="#FFD3BC"/>
<path d="M105.629 101.371C106.398 101.786 106.828 103.049 106.939 103.064C107.047 103.079 107.251 103.049 107.251 102.924C107.251 102.799 107.219 102.378 107.359 102.378C107.499 102.378 107.657 103.064 107.686 104.064C107.718 105.064 108.072 107.445 107.686 107.748C107.443 107.937 105.219 109.107 105.157 109.261C105.096 109.419 105.204 110.51 105.017 110.682C104.831 110.854 104.393 111.274 104.049 111.291C103.705 111.306 101.725 111.51 100.786 111.291C99.8496 111.072 98.6627 110.62 98.6307 110.495C98.5988 110.37 98.8642 107.716 99.1615 107.389C99.4589 107.062 101.597 104.126 101.769 103.86C101.941 103.595 102.066 102.956 102.066 102.58C102.066 102.206 102.405 101.388 103.037 101.191C103.695 100.988 105.052 101.059 105.629 101.371Z" fill="url(#paint7_linear_2_670)"/>
<defs>
<linearGradient id="paint0_linear_2_670" x1="108.498" y1="87.7252" x2="108.498" y2="147.764" gradientUnits="userSpaceOnUse">
<stop stop-color="#E5E5E5"/>
<stop offset="0.4764" stop-color="#F4F4F4"/>
<stop offset="1" stop-color="white"/>
</linearGradient>
<linearGradient id="paint1_linear_2_670" x1="122.989" y1="102.969" x2="131.222" y2="108.494" gradientUnits="userSpaceOnUse">
<stop stop-color="#EF5777"/>
<stop offset="0.9844" stop-color="#DA2A4F"/>
</linearGradient>
<linearGradient id="paint2_linear_2_670" x1="111.537" y1="9.73775" x2="100.966" y2="8.5581" gradientUnits="userSpaceOnUse">
<stop stop-color="#F2BFAD"/>
<stop offset="1" stop-color="#F2DAD4"/>
</linearGradient>
<linearGradient id="paint3_linear_2_670" x1="98.8921" y1="22.9486" x2="134.921" y2="50.2599" gradientUnits="userSpaceOnUse">
<stop stop-color="#EF5777"/>
<stop offset="0.9844" stop-color="#DA2A4F"/>
</linearGradient>
<linearGradient id="paint4_linear_2_670" x1="135.146" y1="38.3458" x2="135.684" y2="47.4639" gradientUnits="userSpaceOnUse">
<stop stop-color="#F2BFAD"/>
<stop offset="0.7043" stop-color="#F2DAD4"/>
</linearGradient>
<linearGradient id="paint5_linear_2_670" x1="112.909" y1="13.5292" x2="116.404" y2="20.8285" gradientUnits="userSpaceOnUse">
<stop stop-color="#F2BFAD"/>
<stop offset="1" stop-color="#F2DAD4"/>
</linearGradient>
<linearGradient id="paint6_linear_2_670" x1="129.283" y1="29.6966" x2="135.368" y2="40.8912" gradientUnits="userSpaceOnUse">
<stop stop-color="#F6DBDB"/>
<stop offset="1" stop-color="#EB9A99"/>
</linearGradient>
<linearGradient id="paint7_linear_2_670" x1="100.497" y1="103.559" x2="108.729" y2="109.084" gradientUnits="userSpaceOnUse">
<stop stop-color="#EF5777"/>
<stop offset="0.9844" stop-color="#DA2A4F"/>
</linearGradient>
</defs>
</svg>
