<svg width="20" height="20" viewBox="0 0 20 20" fill="none" xmlns="http://www.w3.org/2000/svg">
<g clip-path="url(#clip0_2_789)">
<path d="M10.2572 15.4903H9.7019C9.02626 15.4903 8.37141 15.3642 7.76408 15.1312L7.40677 17.4599C7.36319 17.7439 7.58296 18 7.87027 18H12.0888C12.3761 18 12.5958 17.7439 12.5522 17.4599L12.1949 15.1312C11.5876 15.3642 10.9328 15.4903 10.2572 15.4903Z" fill="#F8F9FF"/>
<path d="M14.4235 11.5641H5.53574C5.5142 11.5641 5.49288 11.5633 5.47156 11.5625C6.08777 13.3044 7.74903 14.5525 9.70201 14.5525H10.2572C12.2102 14.5525 13.8715 13.3044 14.4877 11.5625C14.4663 11.5632 14.445 11.5641 14.4235 11.5641Z" fill="#F8F9FF"/>
<path d="M14.8791 4.02535H14.1995C14.2698 2.93782 13.4061 2 12.2985 2H7.66073C6.50986 2 5.62174 3.01257 5.77183 4.15362L6.26737 7.92129H13.6918L14.0809 4.96321H14.8791C15.138 4.96321 15.348 4.75326 15.348 4.4943C15.348 4.2353 15.1381 4.02535 14.8791 4.02535Z" fill="#F8F9FF"/>
<path d="M14.4234 10.6264H5.53572C5.0477 10.6264 4.6521 10.2308 4.6521 9.74274C4.6521 9.25473 5.0477 8.85913 5.53572 8.85913H14.4234C14.9115 8.85913 15.3071 9.25473 15.3071 9.74274C15.3071 10.2308 14.9115 10.6264 14.4234 10.6264Z" fill="#F8F9FF"/>
</g>
<defs>
<clipPath id="clip0_2_789">
<rect width="16" height="16" fill="white" transform="translate(2 2)"/>
</clipPath>
</defs>
</svg>
