<svg width="21" height="21" viewBox="0 0 21 21" fill="none" xmlns="http://www.w3.org/2000/svg">
<path fill-rule="evenodd" clip-rule="evenodd" d="M10.8485 13.4784C10.9893 13.4784 11.131 13.5141 11.2585 13.5856L15.1643 15.7873V5.03043C15.1643 4.86349 15.0635 4.75303 14.9977 4.75303H6.99766C6.93099 4.75303 6.83099 4.86349 6.83099 5.03043V15.7441L10.4193 13.5972C10.5518 13.5183 10.7002 13.4784 10.8485 13.4784ZM5.99733 18.0412C5.85567 18.0412 5.714 18.0055 5.5865 17.9332C5.32567 17.7862 5.164 17.5097 5.164 17.2107V5.03034C5.164 3.96147 5.9865 3.09192 6.99733 3.09192H14.9973C16.0082 3.09192 16.8307 3.96147 16.8307 5.03034V17.2107C16.8307 17.5064 16.6732 17.7796 16.4173 17.9283C16.1607 18.0777 15.8457 18.0802 15.5873 17.9341L10.8607 15.2698L6.42567 17.9233C6.294 18.0013 6.14567 18.0412 5.99733 18.0412Z" fill="#EF5777"/>
<mask id="mask0_2_957" style="mask-type:alpha" maskUnits="userSpaceOnUse" x="5" y="3" width="12" height="16">
<path fill-rule="evenodd" clip-rule="evenodd" d="M10.8485 13.4784C10.9893 13.4784 11.131 13.5141 11.2585 13.5856L15.1643 15.7873V5.03043C15.1643 4.86349 15.0635 4.75303 14.9977 4.75303H6.99766C6.93099 4.75303 6.83099 4.86349 6.83099 5.03043V15.7441L10.4193 13.5972C10.5518 13.5183 10.7002 13.4784 10.8485 13.4784ZM5.99733 18.0412C5.85567 18.0412 5.714 18.0055 5.5865 17.9332C5.32567 17.7862 5.164 17.5097 5.164 17.2107V5.03034C5.164 3.96147 5.9865 3.09192 6.99733 3.09192H14.9973C16.0082 3.09192 16.8307 3.96147 16.8307 5.03034V17.2107C16.8307 17.5064 16.6732 17.7796 16.4173 17.9283C16.1607 18.0777 15.8457 18.0802 15.5873 17.9341L10.8607 15.2698L6.42567 17.9233C6.294 18.0013 6.14567 18.0412 5.99733 18.0412Z" fill="white"/>
</mask>
<g mask="url(#mask0_2_957)">
<rect x="0.99707" y="0.600464" width="20" height="19.9324" fill="#EF5777"/>
</g>
</svg>
