<svg width="20" height="20" viewBox="0 0 20 20" fill="none" xmlns="http://www.w3.org/2000/svg">
<path fill-rule="evenodd" clip-rule="evenodd" d="M6.66671 4.16671C6.66671 4.62504 6.29171 5.00004 5.83337 5.00004H5.00004V15H5.83337C6.29171 15 6.66671 15.375 6.66671 15.8334C6.66671 16.2917 6.29171 16.6667 5.83337 16.6667H4.16671C3.70837 16.6667 3.33337 16.2917 3.33337 15.8334V4.16671C3.33337 3.70837 3.70837 3.33337 4.16671 3.33337H5.83337C6.29171 3.33337 6.66671 3.70837 6.66671 4.16671ZM15.0033 6.18737L17.3483 9.52071C17.5566 9.81571 17.55 10.2115 17.3333 10.4999L14.8333 13.8332C14.67 14.0515 14.4191 14.1665 14.1658 14.1665C13.9925 14.1665 13.8166 14.1124 13.6666 13.9999C13.2983 13.724 13.2241 13.2015 13.5 12.834L15.0008 10.8332H15H8.33329C7.87329 10.8332 7.49996 10.4607 7.49996 9.99987C7.49996 9.53904 7.87329 9.16654 8.33329 9.16654H15C15.0137 9.16654 15.0265 9.17034 15.0394 9.17416C15.0498 9.17728 15.0604 9.18042 15.0716 9.18154L13.64 7.14571C13.375 6.76987 13.4658 6.24987 13.8425 5.98487C14.2183 5.71904 14.7383 5.81071 15.0033 6.18737Z" fill="white"/>
<mask id="mask0_2_819" style="mask-type:alpha" maskUnits="userSpaceOnUse" x="3" y="3" width="15" height="14">
<path fill-rule="evenodd" clip-rule="evenodd" d="M6.66671 4.16671C6.66671 4.62504 6.29171 5.00004 5.83337 5.00004H5.00004V15H5.83337C6.29171 15 6.66671 15.375 6.66671 15.8334C6.66671 16.2917 6.29171 16.6667 5.83337 16.6667H4.16671C3.70837 16.6667 3.33337 16.2917 3.33337 15.8334V4.16671C3.33337 3.70837 3.70837 3.33337 4.16671 3.33337H5.83337C6.29171 3.33337 6.66671 3.70837 6.66671 4.16671ZM15.0033 6.18737L17.3483 9.52071C17.5566 9.81571 17.55 10.2115 17.3333 10.4999L14.8333 13.8332C14.67 14.0515 14.4191 14.1665 14.1658 14.1665C13.9925 14.1665 13.8166 14.1124 13.6666 13.9999C13.2983 13.724 13.2241 13.2015 13.5 12.834L15.0008 10.8332H15H8.33329C7.87329 10.8332 7.49996 10.4607 7.49996 9.99987C7.49996 9.53904 7.87329 9.16654 8.33329 9.16654H15C15.0137 9.16654 15.0265 9.17034 15.0394 9.17416C15.0498 9.17728 15.0604 9.18042 15.0716 9.18154L13.64 7.14571C13.375 6.76987 13.4658 6.24987 13.8425 5.98487C14.2183 5.71904 14.7383 5.81071 15.0033 6.18737Z" fill="white"/>
</mask>
<g mask="url(#mask0_2_819)">
<rect width="20" height="20" fill="white"/>
</g>
</svg>
