<svg width="20" height="20" viewBox="0 0 20 20" fill="none" xmlns="http://www.w3.org/2000/svg">
<g clip-path="url(#clip0_2_794)">
<path d="M11.9971 4.85712H5.14285C4.74016 4.86706 4.34594 4.97493 3.99428 5.1714C2.65257 5.91197 2 7.75426 2 9.28569V12.5714H2.28571C2.44351 12.5714 2.57143 12.6993 2.57143 12.8571C2.57143 13.0149 2.44351 13.1428 2.28571 13.1428H2V17.8086L2.51714 17.5343C2.68523 17.4457 2.8862 17.4457 3.05428 17.5343L3.85714 17.9628L4.65714 17.5343C4.82589 17.4443 5.02839 17.4443 5.19714 17.5343L5.99714 17.9628L6.79999 17.5343C6.96737 17.4428 7.16976 17.4428 7.33714 17.5343L8.13999 17.9628L8.94285 17.5343C9.11123 17.4428 9.31447 17.4428 9.48285 17.5343L9.99999 17.8086V13.1428H9.42856C9.27077 13.1428 9.14285 13.0149 9.14285 12.8571C9.14285 12.6993 9.27077 12.5714 9.42856 12.5714H9.99999V9.28569C9.99999 7.36283 10.8114 5.69426 11.9971 4.85712ZM4.28571 13.1428H3.42857C3.27077 13.1428 3.14286 13.0149 3.14286 12.8571C3.14286 12.6993 3.27077 12.5714 3.42857 12.5714H4.28571C4.44351 12.5714 4.57143 12.6993 4.57143 12.8571C4.57143 13.0149 4.44351 13.1428 4.28571 13.1428ZM6.28571 13.1428H5.42857C5.27077 13.1428 5.14285 13.0149 5.14285 12.8571C5.14285 12.6993 5.27077 12.5714 5.42857 12.5714H6.28571C6.4435 12.5714 6.57142 12.6993 6.57142 12.8571C6.57142 13.0149 6.4435 13.1428 6.28571 13.1428ZM8.28571 13.1428H7.42857C7.27077 13.1428 7.14285 13.0149 7.14285 12.8571C7.14285 12.6993 7.27077 12.5714 7.42857 12.5714H8.28571C8.4435 12.5714 8.57142 12.6993 8.57142 12.8571C8.57142 13.0149 8.4435 13.1428 8.28571 13.1428Z" fill="white"/>
<path d="M13.8571 11.4286C12.9088 11.4286 12.2857 10.3648 12.2857 9.28569C12.2857 7.92398 13.1051 7.14283 13.8571 7.14283C14.4514 7.14283 14.9771 7.58569 15.2457 8.28569H16.5714V7.44855C16.06 5.87426 14.94 4.85712 13.7143 4.85712C11.98 4.85712 10.5714 6.84283 10.5714 9.28569C10.5714 11.7286 11.98 13.7143 13.7143 13.7143C15.1743 13.7143 16.4457 12.2628 16.7743 10.2857H15.2457C14.9771 10.9857 14.4514 11.4286 13.8571 11.4286Z" fill="white"/>
<path d="M10.5714 11.9371V13.7143H11.9971C11.3754 13.256 10.8839 12.6435 10.5714 11.9371Z" fill="white"/>
<path d="M13.0914 8.28572H14.6228C14.493 7.96823 14.1984 7.74841 13.8571 7.71429C13.5158 7.74841 13.2213 7.96823 13.0914 8.28572Z" fill="white"/>
<path d="M16.8571 2H4.85709C4.22591 2 3.71423 2.51167 3.71423 3.14286V4.66572C3.98267 4.51815 4.27154 4.41127 4.57138 4.34857V3.42857C4.57232 3.11337 4.82761 2.85808 5.14281 2.85714H16.5714C16.8866 2.85808 17.1419 3.11337 17.1428 3.42857V8.28572C17.1419 8.60092 16.8866 8.8562 16.5714 8.85715H12.9C12.8428 9.14 12.8428 9.43143 12.9 9.71429H16.8571C17.4883 9.71429 18 9.20261 18 8.57143V3.14286C18 2.51167 17.4883 2 16.8571 2Z" fill="white"/>
<path d="M14.6228 10.2857H13.0914C13.2213 10.6032 13.5158 10.823 13.8571 10.8571C14.1984 10.823 14.493 10.6032 14.6228 10.2857Z" fill="white"/>
</g>
<defs>
<clipPath id="clip0_2_794">
<rect width="16" height="16" fill="white" transform="translate(2 2)"/>
</clipPath>
</defs>
</svg>
