<svg width="89" height="95" viewBox="0 0 89 95" fill="none" xmlns="http://www.w3.org/2000/svg">
<g filter="url(#filter0_d_2_1191)">
<path fill-rule="evenodd" clip-rule="evenodd" d="M56.5011 47.9245C61.2609 44.2686 64.3291 38.5194 64.3291 32.0537C64.3291 21.008 55.3748 12.0537 44.3291 12.0537C33.2834 12.0537 24.3291 21.008 24.3291 32.0537C24.3291 38.0201 26.9417 43.3763 31.0852 47.0406C31.1447 47.1246 31.2124 47.206 31.2886 47.2844C33.7568 49.8211 35.8444 51.5675 37.9618 53.3389C39.5311 54.6518 41.1169 55.9785 42.8862 57.6508C43.6919 58.4123 44.9632 58.4104 45.7592 57.6388C47.9411 55.5238 50.0083 53.7107 52.0042 51.9601C53.5387 50.6142 55.0311 49.3053 56.5011 47.9245Z" fill="#EF5777"/>
</g>
<circle cx="44.3291" cy="32.0537" r="14" fill="white"/>
<g clip-path="url(#clip0_2_1191)">
<path d="M44.5863 37.544H44.031C43.3554 37.544 42.7005 37.4179 42.0932 37.1849L41.7359 39.5137C41.6923 39.7977 41.9121 40.0537 42.1994 40.0537H46.4179C46.7052 40.0537 46.9249 39.7977 46.8813 39.5137L46.524 37.1849C45.9167 37.4179 45.2619 37.544 44.5863 37.544Z" fill="#EF5777"/>
<path d="M48.7526 33.6178H39.8648C39.8433 33.6178 39.822 33.617 39.8007 33.6162C40.4169 35.3582 42.0781 36.6062 44.0311 36.6062H44.5863C46.5393 36.6062 48.2006 35.3582 48.8168 33.6162C48.7954 33.6169 48.7741 33.6178 48.7526 33.6178Z" fill="#EF5777"/>
<path d="M49.2082 26.0791H48.5286C48.5989 24.9915 47.7352 24.0537 46.6276 24.0537H41.9898C40.839 24.0537 39.9508 25.0663 40.1009 26.2073L40.5965 29.975H48.0209L48.41 27.0169H49.2082C49.4671 27.0169 49.6771 26.807 49.6771 26.548C49.6771 26.289 49.4672 26.0791 49.2082 26.0791Z" fill="#EF5777"/>
<path d="M48.7526 32.6801H39.8648C39.3768 32.6801 38.9812 32.2845 38.9812 31.7965C38.9812 31.3084 39.3768 30.9128 39.8648 30.9128H48.7526C49.2406 30.9128 49.6362 31.3084 49.6362 31.7965C49.6362 32.2845 49.2406 32.6801 48.7526 32.6801Z" fill="#EF5777"/>
</g>
<defs>
<filter id="filter0_d_2_1191" x="0.329102" y="0.0537109" width="88" height="94.166" filterUnits="userSpaceOnUse" color-interpolation-filters="sRGB">
<feFlood flood-opacity="0" result="BackgroundImageFix"/>
<feColorMatrix in="SourceAlpha" type="matrix" values="0 0 0 0 0 0 0 0 0 0 0 0 0 0 0 0 0 0 127 0" result="hardAlpha"/>
<feOffset dy="12"/>
<feGaussianBlur stdDeviation="12"/>
<feComposite in2="hardAlpha" operator="out"/>
<feColorMatrix type="matrix" values="0 0 0 0 0.937255 0 0 0 0 0.341176 0 0 0 0 0.466667 0 0 0 0.32 0"/>
<feBlend mode="normal" in2="BackgroundImageFix" result="effect1_dropShadow_2_1191"/>
<feBlend mode="normal" in="SourceGraphic" in2="effect1_dropShadow_2_1191" result="shape"/>
</filter>
<clipPath id="clip0_2_1191">
<rect width="16" height="16" fill="white" transform="translate(36.3291 24.0537)"/>
</clipPath>
</defs>
</svg>
