<svg width="21" height="21" viewBox="0 0 21 21" fill="none" xmlns="http://www.w3.org/2000/svg">
<path d="M19.6089 4.67465C20.1778 3.77625 20.0792 2.56301 19.2835 1.7673C18.4884 0.972227 17.2754 0.8725 16.3761 1.44187C14.8675 0.520547 13.0614 0.0537109 10.9971 0.0537109C5.38961 0.0537109 0.99707 4.44625 0.99707 10.0537C0.99707 15.6612 5.38961 20.0537 10.9971 20.0537C16.6045 20.0537 20.9971 15.6612 20.9971 10.0537C20.9971 7.98941 20.5302 6.18332 19.6089 4.67465ZM18.1786 2.87215C18.4839 3.1775 18.484 3.67164 18.1786 3.97699C17.8733 4.2823 17.3791 4.28234 17.0738 3.97699C16.7685 3.67164 16.7684 3.1775 17.0738 2.87215C17.3791 2.56684 17.8733 2.5668 18.1786 2.87215ZM10.9971 18.4912C6.26574 18.4912 2.55957 14.785 2.55957 10.0537C2.55957 5.32242 6.26574 1.61621 10.9971 1.61621C12.6939 1.61621 14.1722 1.97438 15.4029 2.68148C15.2119 3.25469 15.2482 3.88734 15.5105 4.43543L12.007 7.93902C11.7009 7.7923 11.3585 7.70996 10.9971 7.70996C9.70473 7.70996 8.65332 8.76137 8.65332 10.0537C8.65332 11.3461 9.70473 12.3975 10.9971 12.3975C12.2894 12.3975 13.3408 11.3461 13.3408 10.0537C13.3408 9.6923 13.2585 9.34984 13.1118 9.04387L16.6154 5.54027C17.1625 5.80219 17.7951 5.83926 18.3693 5.64797C19.0764 6.87855 19.4346 8.35688 19.4346 10.0537C19.4346 14.785 15.7284 18.4912 10.9971 18.4912ZM11.7783 10.0537C11.7783 10.4845 11.4279 10.835 10.9971 10.835C10.5663 10.835 10.2158 10.4845 10.2158 10.0537C10.2158 9.62293 10.5663 9.27246 10.9971 9.27246C11.4279 9.27246 11.7783 9.62293 11.7783 10.0537Z" fill="#EF5777"/>
</svg>
