<svg width="20" height="20" viewBox="0 0 20 20" fill="none" xmlns="http://www.w3.org/2000/svg">
<path fill-rule="evenodd" clip-rule="evenodd" d="M16.8945 7.22222C16.5895 5.09638 14.9037 3.41055 12.7779 3.10555V7.22222H16.8945ZM17.6387 8.61055H12.0837C11.7004 8.61055 11.3887 8.30055 11.3887 7.91638V2.36055C11.3887 1.97722 11.7004 1.66638 12.0837 1.66638C15.5295 1.66638 18.3337 4.47055 18.3337 7.91638C18.3337 8.30055 18.022 8.61055 17.6387 8.61055ZM10.7787 9.98144H17.5695C18.0212 9.98144 18.3745 10.3748 18.3295 10.8239C17.8762 15.3456 13.8162 18.8056 9.06788 18.2806C5.24704 17.8589 2.14121 14.7531 1.71871 10.9323C1.19537 6.18394 4.65371 2.12311 9.17621 1.67061C9.62621 1.62561 10.0187 1.97811 10.0187 2.42977V9.22227C10.0187 9.64144 10.3587 9.98144 10.7787 9.98144Z" fill="white"/>
<mask id="mask0_2_809" style="mask-type:alpha" maskUnits="userSpaceOnUse" x="1" y="1" width="18" height="18">
<path fill-rule="evenodd" clip-rule="evenodd" d="M16.8945 7.22222C16.5895 5.09638 14.9037 3.41055 12.7779 3.10555V7.22222H16.8945ZM17.6387 8.61055H12.0837C11.7004 8.61055 11.3887 8.30055 11.3887 7.91638V2.36055C11.3887 1.97722 11.7004 1.66638 12.0837 1.66638C15.5295 1.66638 18.3337 4.47055 18.3337 7.91638C18.3337 8.30055 18.022 8.61055 17.6387 8.61055ZM10.7787 9.98144H17.5695C18.0212 9.98144 18.3745 10.3748 18.3295 10.8239C17.8762 15.3456 13.8162 18.8056 9.06788 18.2806C5.24704 17.8589 2.14121 14.7531 1.71871 10.9323C1.19537 6.18394 4.65371 2.12311 9.17621 1.67061C9.62621 1.62561 10.0187 1.97811 10.0187 2.42977V9.22227C10.0187 9.64144 10.3587 9.98144 10.7787 9.98144Z" fill="white"/>
</mask>
<g mask="url(#mask0_2_809)">
<rect width="20" height="20" fill="white"/>
</g>
</svg>
