<svg width="20" height="20" viewBox="0 0 20 20" fill="none" xmlns="http://www.w3.org/2000/svg">
<path fill-rule="evenodd" clip-rule="evenodd" d="M10.0001 8.75002C9.31089 8.75002 8.75006 9.31085 8.75006 10C8.75006 10.6892 9.31089 11.25 10.0001 11.25C10.6892 11.25 11.2501 10.6892 11.2501 10C11.2501 9.31085 10.6892 8.75002 10.0001 8.75002ZM10.0001 12.9167C8.39173 12.9167 7.08339 11.6084 7.08339 10C7.08339 8.39169 8.39173 7.08335 10.0001 7.08335C11.6084 7.08335 12.9167 8.39169 12.9167 10C12.9167 11.6084 11.6084 12.9167 10.0001 12.9167ZM18.2434 8.59919L17.5876 6.49835C17.4309 5.99419 17.0892 5.58669 16.6267 5.35002C16.1759 5.11919 15.6634 5.08002 15.1834 5.24002L14.9001 5.33419C14.4534 5.48502 13.9551 5.40169 13.5726 5.11419L13.4834 5.04669C13.1192 4.77335 12.9034 4.32752 12.9051 3.85585L12.9067 3.62335C12.9084 3.09419 12.7067 2.59835 12.3376 2.22752C11.9801 1.86835 11.5076 1.67002 11.0059 1.66919L8.88339 1.66669H8.88006C7.83506 1.66669 6.98172 2.53502 6.97756 3.60502L6.97673 3.80585C6.97506 4.30419 6.74589 4.77419 6.36589 5.06419L6.25839 5.14585C5.83089 5.47085 5.27673 5.56335 4.77756 5.39335C4.31256 5.23419 3.81506 5.26835 3.37506 5.49002C2.92506 5.71752 2.59256 6.11252 2.43839 6.60169L1.75839 8.76419C1.43589 9.79085 1.97756 10.8675 2.99173 11.215L3.12839 11.2617C3.56006 11.4092 3.90756 11.7859 4.06089 12.2709L4.10673 12.4109C4.28923 12.9492 4.22589 13.5167 3.91423 13.9584C3.31423 14.8109 3.49673 16.0134 4.32173 16.6384L6.04839 17.95C6.38006 18.2017 6.77256 18.3334 7.17839 18.3334C7.27423 18.3334 7.37089 18.3267 7.46756 18.3117C7.97756 18.2317 8.42506 17.9525 8.72672 17.525L8.91922 17.2517C9.19589 16.8584 9.61839 16.6259 10.1092 16.6125C10.5984 16.585 11.0651 16.84 11.3567 17.26L11.4551 17.4034C11.7542 17.835 12.2009 18.1184 12.7126 18.2009C13.2201 18.2817 13.7259 18.1559 14.1384 17.8442L15.8559 16.5475C16.6842 15.9234 16.8742 14.7167 16.2792 13.8567L16.0617 13.5442C15.7884 13.1492 15.7084 12.635 15.8467 12.1675C15.9976 11.6575 16.3742 11.2575 16.8551 11.0959L17.0226 11.04C18.0117 10.7092 18.5592 9.61419 18.2434 8.59919Z" fill="white"/>
<mask id="mask0_2_804" style="mask-type:alpha" maskUnits="userSpaceOnUse" x="1" y="1" width="18" height="18">
<path fill-rule="evenodd" clip-rule="evenodd" d="M10.0001 8.75002C9.31089 8.75002 8.75006 9.31085 8.75006 10C8.75006 10.6892 9.31089 11.25 10.0001 11.25C10.6892 11.25 11.2501 10.6892 11.2501 10C11.2501 9.31085 10.6892 8.75002 10.0001 8.75002ZM10.0001 12.9167C8.39173 12.9167 7.08339 11.6084 7.08339 10C7.08339 8.39169 8.39173 7.08335 10.0001 7.08335C11.6084 7.08335 12.9167 8.39169 12.9167 10C12.9167 11.6084 11.6084 12.9167 10.0001 12.9167ZM18.2434 8.59919L17.5876 6.49835C17.4309 5.99419 17.0892 5.58669 16.6267 5.35002C16.1759 5.11919 15.6634 5.08002 15.1834 5.24002L14.9001 5.33419C14.4534 5.48502 13.9551 5.40169 13.5726 5.11419L13.4834 5.04669C13.1192 4.77335 12.9034 4.32752 12.9051 3.85585L12.9067 3.62335C12.9084 3.09419 12.7067 2.59835 12.3376 2.22752C11.9801 1.86835 11.5076 1.67002 11.0059 1.66919L8.88339 1.66669H8.88006C7.83506 1.66669 6.98172 2.53502 6.97756 3.60502L6.97673 3.80585C6.97506 4.30419 6.74589 4.77419 6.36589 5.06419L6.25839 5.14585C5.83089 5.47085 5.27673 5.56335 4.77756 5.39335C4.31256 5.23419 3.81506 5.26835 3.37506 5.49002C2.92506 5.71752 2.59256 6.11252 2.43839 6.60169L1.75839 8.76419C1.43589 9.79085 1.97756 10.8675 2.99173 11.215L3.12839 11.2617C3.56006 11.4092 3.90756 11.7859 4.06089 12.2709L4.10673 12.4109C4.28923 12.9492 4.22589 13.5167 3.91423 13.9584C3.31423 14.8109 3.49673 16.0134 4.32173 16.6384L6.04839 17.95C6.38006 18.2017 6.77256 18.3334 7.17839 18.3334C7.27423 18.3334 7.37089 18.3267 7.46756 18.3117C7.97756 18.2317 8.42506 17.9525 8.72672 17.525L8.91922 17.2517C9.19589 16.8584 9.61839 16.6259 10.1092 16.6125C10.5984 16.585 11.0651 16.84 11.3567 17.26L11.4551 17.4034C11.7542 17.835 12.2009 18.1184 12.7126 18.2009C13.2201 18.2817 13.7259 18.1559 14.1384 17.8442L15.8559 16.5475C16.6842 15.9234 16.8742 14.7167 16.2792 13.8567L16.0617 13.5442C15.7884 13.1492 15.7084 12.635 15.8467 12.1675C15.9976 11.6575 16.3742 11.2575 16.8551 11.0959L17.0226 11.04C18.0117 10.7092 18.5592 9.61419 18.2434 8.59919Z" fill="white"/>
</mask>
<g mask="url(#mask0_2_804)">
<rect width="20" height="20" fill="white"/>
</g>
</svg>
