<svg width="20" height="20" viewBox="0 0 20 20" fill="none" xmlns="http://www.w3.org/2000/svg">
<path fill-rule="evenodd" clip-rule="evenodd" d="M15 12.5004C14.3191 12.5004 13.7025 12.7754 13.2508 13.2179L6.63829 10.2795C6.64913 10.187 6.66663 10.0954 6.66663 10.0004C6.66663 9.90537 6.64913 9.8137 6.63829 9.7212L13.2508 6.78287C13.7025 7.22537 14.3191 7.50037 15 7.50037C16.3783 7.50037 17.5 6.3787 17.5 5.00037C17.5 3.62203 16.3783 2.50037 15 2.50037C13.6216 2.50037 12.5 3.62203 12.5 5.00037C12.5 5.09537 12.5175 5.18703 12.5283 5.27953L5.91579 8.21787C5.46413 7.77537 4.84746 7.50037 4.16663 7.50037C2.78829 7.50037 1.66663 8.62203 1.66663 10.0004C1.66663 11.3787 2.78829 12.5004 4.16663 12.5004C4.84746 12.5004 5.46413 12.2254 5.91579 11.7829L12.5283 14.7212C12.5175 14.8137 12.5 14.9054 12.5 15.0004C12.5 16.3787 13.6216 17.5004 15 17.5004C16.3783 17.5004 17.5 16.3787 17.5 15.0004C17.5 13.622 16.3783 12.5004 15 12.5004Z" fill="white"/>
<mask id="mask0_2_814" style="mask-type:alpha" maskUnits="userSpaceOnUse" x="1" y="2" width="17" height="16">
<path fill-rule="evenodd" clip-rule="evenodd" d="M15 12.5004C14.3191 12.5004 13.7025 12.7754 13.2508 13.2179L6.63829 10.2795C6.64913 10.187 6.66663 10.0954 6.66663 10.0004C6.66663 9.90537 6.64913 9.8137 6.63829 9.7212L13.2508 6.78287C13.7025 7.22537 14.3191 7.50037 15 7.50037C16.3783 7.50037 17.5 6.3787 17.5 5.00037C17.5 3.62203 16.3783 2.50037 15 2.50037C13.6216 2.50037 12.5 3.62203 12.5 5.00037C12.5 5.09537 12.5175 5.18703 12.5283 5.27953L5.91579 8.21787C5.46413 7.77537 4.84746 7.50037 4.16663 7.50037C2.78829 7.50037 1.66663 8.62203 1.66663 10.0004C1.66663 11.3787 2.78829 12.5004 4.16663 12.5004C4.84746 12.5004 5.46413 12.2254 5.91579 11.7829L12.5283 14.7212C12.5175 14.8137 12.5 14.9054 12.5 15.0004C12.5 16.3787 13.6216 17.5004 15 17.5004C16.3783 17.5004 17.5 16.3787 17.5 15.0004C17.5 13.622 16.3783 12.5004 15 12.5004Z" fill="white"/>
</mask>
<g mask="url(#mask0_2_814)">
<rect width="20" height="20" fill="white"/>
</g>
</svg>
