<svg width="24" height="24" viewBox="0 0 24 24" fill="none" xmlns="http://www.w3.org/2000/svg">
<path d="M18.9627 9.20682L14.4996 8.55819L12.5045 4.51346C12.45 4.40272 12.3603 4.31307 12.2496 4.25858C11.9719 4.12147 11.6344 4.23572 11.4955 4.51346L9.50038 8.55819L5.03729 9.20682C4.91425 9.2244 4.80174 9.2824 4.71561 9.3703C4.61148 9.47732 4.5541 9.62131 4.55608 9.77062C4.55806 9.91993 4.61923 10.0624 4.72616 10.1666L7.95526 13.3148L7.19237 17.7603C7.17448 17.8637 7.18592 17.9701 7.2254 18.0673C7.26488 18.1646 7.33082 18.2488 7.41573 18.3105C7.50065 18.3722 7.60114 18.4088 7.70583 18.4163C7.81051 18.4237 7.91519 18.4017 8.00799 18.3527L12 16.2539L15.992 18.3527C16.101 18.4107 16.2275 18.4301 16.3488 18.409C16.6547 18.3562 16.8603 18.0662 16.8076 17.7603L16.0447 13.3148L19.2738 10.1666C19.3617 10.0805 19.4197 9.96795 19.4373 9.8449C19.4848 9.53729 19.2703 9.25252 18.9627 9.20682Z" fill="white"/>
</svg>
